<svg width="256" height="256" viewBox="0 0 256 256" fill="none" xmlns="http://www.w3.org/2000/svg">
  <defs><clipPath id="pb"><rect x="10" y="10" width="236" height="236" rx="54"></rect></clipPath></defs>
  <rect x="6" y="6" width="244" height="244" rx="60" fill="#e5eefb" stroke="#101418" stroke-width="8"></rect>
  <g clip-path="url(#pb)"><svg x="23" y="40" width="210" height="219" viewBox="0 0 181 189" fill="none" xmlns="http://www.w3.org/2000/svg" preserveAspectRatio="xMidYMax meet">

<g id="ìºë¦­í° ìì© ëì (ë¸ë ë¼ì¸)">

<g id="ëì_íì" clip-path="url(#clip0_11_4)">
<g id="Group">
<path id="Vector" d="M156.972 134.025C158.438 136.482 159.739 143.839 158.317 149.76C156.895 155.68 153.161 160.759 147.415 162.757L147.802 162.94C158.085 169.34 158.607 177.127 155.782 181.5C153.649 184.798 148.072 188.252 136.904 184.436C125.74 180.624 118.591 167.284 118.591 167.284L118.529 167.018C110.103 167.057 106.712 166.882 106.712 166.882C103.892 171.531 99.8678 176.493 95.8048 180.242C90.4504 185.181 80.1719 189.002 73.5695 182.96C62.7832 173.088 80.022 147.312 85.5264 141.073L156.982 134.021L156.972 134.025Z" fill="#2A6BFF"></path>
<path id="Vector_2" d="M82.7157 173.282C86.2854 175.362 96.9653 178.743 96.9653 178.743C97.2313 179.038 92.2686 183.667 89.5261 184.223C85.1826 185.103 78.3964 188.499 71.2619 179.386C67.107 174.085 71.7988 163.797 71.7988 163.797C71.7988 163.797 79.8765 171.623 82.7206 173.282H82.7157Z" fill="white"></path>
<path id="Vector_3" d="M84.9218 141.518C84.9218 141.518 131.124 144.444 144.063 144.652C157.006 144.86 159.231 143.443 159.231 143.443C159.231 143.443 156.735 132.473 155.894 130.151C155.265 128.41 115.743 125.885 95.9742 129.629C89.3863 130.877 84.917 141.518 84.917 141.518H84.9218Z" fill="white"></path>
<path id="Vector_4" d="M129.934 180.982C129.934 180.982 141.784 178.196 144.923 174.708C148.062 171.221 153.286 167.042 153.286 167.042C153.286 167.042 158.515 173.49 157.122 177.674C155.729 181.857 151.545 186.738 145.271 186.738C138.998 186.738 129.934 180.987 129.934 180.987V180.982Z" fill="white"></path>
<path id="Vector_5" d="M76.0215 96.0703L84.8198 120.661C84.8198 120.661 89.1827 113.59 94.0148 113.062C98.8469 112.535 101.71 112.521 101.71 112.521L76.0215 96.0703Z" fill="black"></path>
<path id="Vector_6" d="M156.972 134.025C158.437 136.483 159.739 143.839 158.316 149.76C156.894 155.68 153.16 160.759 147.414 162.757" stroke="black" stroke-width="3.14399" stroke-linecap="round" stroke-linejoin="round"></path>
<path id="Vector_7" d="M76.7613 155.733C71.2569 161.973 65.7912 177.282 74.2703 182.82C81.7626 187.71 90.44 185.19 95.7945 180.252C99.8575 176.503 103.882 171.536 106.702 166.892" stroke="black" stroke-width="3.14399" stroke-linecap="round" stroke-linejoin="round"></path>
<path id="Vector_8" d="M96.3652 164.687C104.54 166.66 110.097 167.061 118.523 167.023" stroke="black" stroke-width="3.14399" stroke-linecap="round" stroke-linejoin="round"></path>
<path id="Vector_9" d="M118.581 167.289C118.581 167.289 125.73 181.118 136.894 184.929C148.057 188.741 153.639 184.803 155.772 181.505C158.602 177.127 158.074 169.34 147.791 162.945" stroke="black" stroke-width="3.14399" stroke-linecap="round" stroke-linejoin="round"></path>
<path id="Vector_10" d="M123.351 143.776C134.708 145.445 146.258 145.595 157.664 144.217" stroke="black" stroke-width="3.14399" stroke-linecap="round" stroke-linejoin="round"></path>
<path id="Vector_11" d="M151.283 166.331C145.45 176.314 128.768 180.561 130.277 180.203" stroke="black" stroke-width="3.14399" stroke-linecap="round" stroke-linejoin="round"></path>
<path id="Vector_12" d="M72.5918 163.124C76.0695 168.464 84.9114 176.619 97.6615 177.799" stroke="black" stroke-width="3.14399" stroke-linecap="round" stroke-linejoin="round"></path>
</g>
<g id="Group_2">
<path id="Vector_13" d="M72.7566 142.21C71.0685 144.513 70.8799 147.874 72.0601 150.438C73.8933 154.423 78.5415 154.409 82.266 153.828C89.323 152.731 95.432 148.184 99.6595 142.563L85.6131 121.682C80.4715 109.982 57.6316 54.7541 52.2481 42.5022C46.2745 28.9008 37.8438 -3.11952 16.7984 2.15271C11.7245 3.42482 7.10525 6.52044 4.25147 10.8156C1.03009 15.667 0.962374 21.3117 2.72785 26.7194C4.48364 32.0883 10.0848 40.7658 13.1707 45.4576C16.3147 50.2461 58.8698 107.626 66.1542 116.033L75.6588 132.933L72.7566 142.21Z" fill="#DEAE67"></path>
<path id="Vector_14" d="M85.6131 121.682C80.4715 109.982 57.6316 54.7541 52.2481 42.5022C46.2745 28.9008 37.8438 -3.11952 16.7984 2.15271C11.7245 3.42482 7.10525 6.52044 4.25147 10.8156C1.03009 15.667 0.962374 21.3117 2.72785 26.7194C4.48364 32.0883 9.95902 40.8528 13.1707 45.4576C31.6671 71.988 58.8698 107.626 66.1542 116.033" stroke="black" stroke-width="3.14399" stroke-linecap="round" stroke-linejoin="round"></path>
<path id="Vector_15" d="M72.7572 142.21C71.0691 144.512 70.8804 147.874 72.0606 150.438C73.8938 154.423 78.5421 154.409 82.2665 153.828C89.3236 152.73 95.4326 148.184 99.66 142.563" stroke="black" stroke-width="3.14399" stroke-linecap="round" stroke-linejoin="round"></path>
</g>
<g id="Group_3">
<path id="Vector_16" d="M149.949 107.365C149.949 107.365 127.699 111.506 119.505 112.531C111.317 113.556 97.5411 110.113 90.6533 112.802C85.8938 114.659 78.561 121.944 83.7656 131.7C88.9701 141.456 101.338 145.645 122.214 143.453C143.09 141.262 152.043 138.892 155.995 133.47C159.371 128.836 164.958 119.772 156.88 110.887C153.964 107.675 149.939 107.365 149.939 107.365H149.949Z" fill="white"></path>
<path id="Vector_17" d="M111.791 112.685C111.791 112.685 115.385 119.085 115.317 125.286C115.249 131.486 109.503 143.642 109.503 143.642C109.503 143.642 95.7518 143.163 89.6621 139.08C83.5724 134.998 79.1563 124.739 83.2387 118.649C87.321 112.56 95.3503 110.025 98.7265 110.886C102.103 111.747 111.791 112.685 111.791 112.685Z" fill="#78B2FF"></path>
<path id="Vector_18" d="M125.832 114.684C128.633 124.091 127.187 134.679 121.958 142.984" stroke="#78B2FF" stroke-width="3.14399" stroke-linecap="round" stroke-linejoin="round"></path>
<path id="Vector_19" d="M104.831 111.704C99.7372 110.838 91.6016 110.944 87.4757 114.127C83.9786 116.826 81.6375 119.888 81.9229 126.447C82.1164 130.901 85.004 135.617 88.5833 138.181C94.7456 142.597 101.846 142.96 107.399 143.298C118.891 144.004 128.348 144.13 138.529 141.794C142.97 140.773 147.386 139.356 151.245 136.885C155.105 134.413 158.878 130.809 160.32 126.403C161.601 122.485 161.572 119.07 160.32 115.152C159.584 112.85 157.33 108.705 152.164 107.021" stroke="black" stroke-width="3.14399" stroke-linecap="round" stroke-linejoin="round"></path>
<path id="Vector_20" d="M109.575 142.713C115.409 134.65 116.642 123.482 112.71 114.34" stroke="black" stroke-width="3.14399" stroke-linecap="round" stroke-linejoin="round"></path>
</g>
<g id="Group_4">
<path id="Vector_21" d="M60.6793 115.114C52.0599 119.056 49.4044 130.597 56.4663 139.613C63.1751 148.179 77.0909 146.215 79.8334 135.487C81.2942 129.774 79.1031 123.042 75.2577 118.621C71.306 114.074 65.521 112.903 60.6841 115.119L60.6793 115.114Z" fill="#78B2FF"></path>
<path id="Vector_22" d="M60.6793 115.114C52.0599 119.056 49.4044 130.597 56.4663 139.613C63.1751 148.179 77.0909 146.215 79.8334 135.487C81.2942 129.774 79.1031 123.042 75.2577 118.621C71.306 114.074 65.521 112.903 60.6841 115.119L60.6793 115.114Z" stroke="black" stroke-width="3.14399" stroke-linecap="round" stroke-linejoin="round"></path>
</g>
<g id="Group_5">
<path id="Vector_23" d="M75.6681 35.4641C71.697 38.5791 69.3027 44.8042 67.4357 49.0703C65.0463 54.5312 63.2615 60.4999 63.8806 66.5171C65.1333 78.6819 66.5409 95.6352 75.4166 102.112C86.0868 109.894 99.6398 116.942 122.131 114.199C144.618 111.457 156.478 104.637 160.445 97.2024C164.411 89.7681 168.812 84.3652 166.955 70.1592C165.103 55.9532 161.886 42.0326 144.478 34.5161C135.249 30.5305 124.274 31.0577 114.446 31.2608C104.283 31.4737 94.1306 32.1895 83.9828 32.7312C81.4772 32.8667 78.8653 33.0311 76.7032 34.2984C76.355 34.5016 75.997 35.2029 75.6681 35.4593V35.4641Z" fill="#78B2FF"></path>
<path id="Vector_24" d="M165.616 79.1127L164.919 85.8699C164.136 89.3621 161.703 94.0056 159.865 97.0722C154.404 106.175 143.497 111.447 133.692 113.034L125.871 113.924C122.998 113.687 119.96 113.9 117.107 113.614C97.9525 111.694 77.8116 97.3866 83.6159 73.8889C88.7865 52.9547 112.284 43.2809 131.298 45.2157C148.967 47.015 164.663 58.3963 165.616 79.1127Z" fill="white"></path>
<path id="Vector_25" d="M67.3539 27.9142C58.5895 38.5409 56.7079 47.0635 56.7079 47.0635C56.7079 47.0635 48.6254 52.4906 46.9906 57.8789C45.3509 63.272 42.8695 78.6389 47.3195 84.6608C51.7694 90.6876 58.9329 96.9417 68.1375 94.4217C77.347 91.9017 80.9747 82.2762 81.6518 78.605C83.1561 70.45 80.1427 60.4183 80.1427 60.4183C80.1427 60.4183 109.575 47.3006 118.054 47.1361C126.534 46.9716 143.332 46.309 147.54 47.7504C151.748 49.1966 164.895 52.8582 164.895 52.8582C164.895 52.8582 167.962 60.3796 167.884 63.9395C167.812 67.4995 168.75 79.3838 168.17 82.7648C167.589 86.1458 163.333 95.2101 163.333 95.2101C163.333 95.2101 172.32 95.2295 177.152 82.9534C180.344 74.8419 179.193 66.3822 176.063 62.0773C172.934 57.7725 170.956 55.0203 170.956 55.0203C170.956 55.0203 170.578 48.742 168.257 46.1494C165.935 43.5568 163.362 40.8771 163.362 40.8771C163.362 40.8771 163.304 32.4561 150.326 19.9865C145.755 15.5946 128.217 7.46861 119.762 7.22677C105.682 6.82047 81.0279 11.3478 67.3588 27.9142H67.3539Z" fill="#2A6BFF"></path>
<path id="Vector_26" d="M122.625 21.974C124.134 21.8628 125.455 23.0865 125.513 24.615C125.566 26.0709 124.415 27.343 122.964 27.4494L121.048 27.5897C120.923 27.5994 120.807 27.5026 120.797 27.372L120.424 22.3658C120.415 22.2401 120.511 22.124 120.642 22.1143L122.62 21.9692M122.393 18.8881L117.735 19.2315C117.348 19.2605 117.058 19.5943 117.087 19.9812L117.846 30.2258C117.875 30.6128 118.209 30.903 118.596 30.8739L123.254 30.5305C126.471 30.2935 128.884 27.4929 128.647 24.2764C128.41 21.0599 125.61 18.6462 122.393 18.8833V18.8881Z" fill="white"></path>
<path id="Vector_27" d="M56.5631 47.1309C56.5631 47.1309 47.46 50.744 45.6462 65.395C43.8662 79.8138 49.7962 93.0138 62.764 94.4455C72.4426 95.5096 87.2291 84.0655 79.1901 60.3937" stroke="black" stroke-width="3.14399" stroke-linecap="round" stroke-linejoin="round"></path>
<path id="Vector_28" d="M79.8477 59.8865C94.4454 52.1619 110.489 46.8365 127.027 45.7482C147.25 44.4181 162.157 50.5464 170.22 55.3011" stroke="black" stroke-width="3.14399" stroke-linecap="round" stroke-linejoin="round"></path>
<path id="Vector_29" d="M79.2334 60.0501C79.2334 60.0501 79.4849 53.796 85.1876 48.4706C92.7816 41.3845 111.346 33.4133 133.997 34.6273C156.648 35.8414 165.069 41.7134 168.315 46.8599C170.259 49.9361 170.24 54.1443 170.24 54.1443" stroke="black" stroke-width="3.14399" stroke-linecap="round" stroke-linejoin="round"></path>
<path id="Vector_30" d="M53.714 79.2874C54.6234 81.1786 55.9922 82.7264 57.9318 83.6116C63.0976 85.9623 67.7024 82.3878 68.4811 77.1059C69.2308 71.9982 68.4811 64.3849 64.481 61.0087C60.2584 57.4439 54.8217 59.2674 53.032 63.8286C51.4794 67.7804 51.6535 74.9922 53.714 79.2874Z" stroke="#003BE2" stroke-width="3.14399" stroke-linecap="round" stroke-linejoin="round"></path>
<path id="Vector_31" d="M69.0078 93.9577C73.0466 102.132 82.556 107.719 90.7255 110.548C98.8951 113.378 106.678 114.234 115.268 114.311C132.516 114.461 153.605 109.62 162.776 93.2805C165.968 87.5923 167.328 81.817 167.42 75.1808C167.511 68.5445 166.733 60.5927 164.392 54.3047" stroke="black" stroke-width="3.14399" stroke-linecap="round" stroke-linejoin="round"></path>
<g id="Group_6">
<path id="Vector_32" d="M137.996 87.5966C139.075 86.2761 139.302 84.0995 138.819 82.4598C138.785 82.3437 138.746 82.2228 138.703 82.1019C137.818 79.6834 134.306 77.8503 130.267 77.9954C126.228 78.1405 123.186 78.8757 121.72 80.6653C120.255 82.4502 119.123 84.1286 119.839 86.5422C120.555 88.9558 123.96 90.2666 123.96 90.2666C123.96 90.2666 120.709 91.3162 120.356 94.6779C120.192 96.2547 121.058 99.7856 124.642 100.816C128.226 101.846 133.895 100.976 135.752 99.9791C137.61 98.9779 139.82 97.3623 139.481 94.7262C138.891 90.1263 136.033 89.662 136.033 89.662L138.006 87.5966H137.996Z" fill="#FFDFB7"></path>
<path id="Vector_33" d="M128.676 89.8991C132.323 89.7298 140.372 88.8301 138.539 82.9001C137.566 79.7561 134.606 78.9144 131.83 78.4695C127.651 77.7923 121.653 79.1466 120.091 82.6679C119.21 84.6559 119.641 87.2243 121.387 88.6124C123.027 89.9184 125.237 90.0635 127.269 89.9619C127.733 89.9378 128.202 89.9184 128.676 89.8942V89.8991Z" stroke="black" stroke-width="3.14399" stroke-linecap="round" stroke-linejoin="round"></path>
<path id="Vector_34" d="M129.909 89.8026C127.172 89.9186 124.356 90.1121 121.982 91.4326C121.251 91.8389 120.569 92.3613 120.158 93.0481C119.046 94.9007 119.5 97.116 120.913 98.6976C122.431 100.4 124.473 101.015 126.664 101.145C131.418 101.435 137.208 100.492 138.814 96.9999C139.723 95.0264 139.273 92.4725 137.46 91.0892C135.757 89.7929 133.469 89.6429 131.365 89.7397C130.881 89.7639 130.398 89.7784 129.904 89.8026H129.909Z" stroke="black" stroke-width="3.14399" stroke-linecap="round" stroke-linejoin="round"></path>
<g id="Group_7">
<path id="Vector_35" d="M108.584 78.5853C111.501 78.5853 113.866 76.2205 113.866 73.3034C113.866 70.3863 111.501 68.0215 108.584 68.0215C105.667 68.0215 103.302 70.3863 103.302 73.3034C103.302 76.2205 105.667 78.5853 108.584 78.5853Z" fill="black"></path>
<path id="Vector_36" d="M113.871 73.3324C113.856 76.2491 111.476 78.6046 108.56 78.5901C101.551 78.2757 101.609 68.2633 108.618 68.0215C111.534 68.036 113.89 70.4158 113.875 73.3324H113.871Z" stroke="black" stroke-width="2.41845" stroke-linejoin="round"></path>
</g>
<g id="Group_8">
<path id="Vector_37" d="M143.236 74.895C146.065 74.895 148.358 72.6016 148.358 69.7727C148.358 66.9437 146.065 64.6504 143.236 64.6504C140.407 64.6504 138.113 66.9437 138.113 69.7727C138.113 72.6016 140.407 74.895 143.236 74.895Z" fill="black"></path>
<path id="Vector_38" d="M148.353 69.8017C148.338 72.6313 146.031 74.9095 143.206 74.895C136.415 74.5903 136.469 64.8874 143.26 64.6553C146.089 64.6698 148.367 66.977 148.353 69.8017Z" stroke="black" stroke-width="2.41845" stroke-linejoin="round"></path>
</g>
<path id="Vector_39" d="M143.409 54.8217C142.873 55.0345 141.499 55.436 141.006 55.6682C139.482 56.3889 136.294 57.1773 136.14 59.2668C136.077 60.1085 136.633 60.684 137.658 60.684C138.684 60.684 139.738 60.2923 140.739 59.9053C142.858 59.0879 144.977 58.2753 147.095 57.4578C147.7 57.2257 148.338 56.9693 148.745 56.5243C149.533 55.6585 149.407 54.3719 148.469 53.893C147.618 53.4529 145.156 54.1204 143.405 54.8266L143.409 54.8217Z" fill="#0F0708" stroke="black" stroke-width="2.90214" stroke-linecap="round" stroke-linejoin="round"></path>
<path id="Vector_40" d="M102.595 58.1881C102.015 58.2219 101.42 58.28 100.893 58.4831C100.365 58.6863 99.9059 59.0539 99.7995 59.5182C99.6834 60.0309 100.017 60.5582 100.506 60.9016C100.994 61.245 101.613 61.4336 102.228 61.5933C104.245 62.1156 114.886 64.5148 114.808 61.2982C114.789 60.534 114.823 60.0938 112.729 59.494C108.23 58.2026 104.728 58.0575 102.595 58.1881Z" fill="#0F0708" stroke="black" stroke-width="2.90214" stroke-linecap="round" stroke-linejoin="round"></path>
</g>
<path id="Vector_41" d="M169.263 54.7256C182.966 63.1466 181.655 90.3833 164.663 93.7256" stroke="black" stroke-width="3.14399" stroke-linecap="round" stroke-linejoin="round"></path>
<path id="Vector_42" d="M171.266 56.3067L165.708 59.1072L165.302 54.3525L171.266 56.3067Z" fill="black"></path>
<path id="Vector_43" d="M57.1631 46.6475C57.1631 46.6475 60.5538 27.3385 80.1916 15.7928C89.0045 10.6125 101.073 6.59786 117.595 6.95579C137.03 7.3766 158.685 20.9732 163.551 40.9109" stroke="black" stroke-width="3.14399" stroke-linecap="round" stroke-linejoin="round"></path>
</g>
</g>
</g>
<defs>
<clipPath id="clip0_11_4">
<rect width="180.156" height="188.069" fill="white"></rect>
</clipPath>
</defs>
</svg><svg x="36" y="30" width="70" height="70" viewBox="0 0 56 56" fill="none" xmlns="http://www.w3.org/2000/svg">
  <path d="M28 28 L28 6" stroke="#1e84ff" stroke-width="4.6" stroke-linecap="round"></path>
  <path d="M28 28 L47 15" stroke="#a05cff" stroke-width="4.6" stroke-linecap="round"></path>
  <path d="M28 28 L50 33" stroke="#18ba45" stroke-width="4.6" stroke-linecap="round"></path>
  <path d="M28 28 L45 45" stroke="#ff9429" stroke-width="4.6" stroke-linecap="round"></path>
  <path d="M28 28 L9 20" stroke="#ffd24a" stroke-width="4.6" stroke-linecap="round"></path>
  <circle cx="28" cy="28" r="6.5" fill="#ffffff" stroke="#101418" stroke-width="3"></circle>
</svg></g>
</svg>